<?xml version="1.0" standalone="no"?>
<!DOCTYPE svg PUBLIC "-//W3C//DTD SVG 20010904//EN"
 "http://www.w3.org/TR/2001/REC-SVG-20010904/DTD/svg10.dtd">
<svg version="1.0" xmlns="http://www.w3.org/2000/svg"
 width="3240.000000pt" height="3240.000000pt" viewBox="0 0 3240.000000 3240.000000"
 preserveAspectRatio="xMidYMid meet">

<g transform="translate(0.000000,3240.000000) scale(0.100000,-0.100000)"
fill="#000000" stroke="none">
<path d="M15725 19953 c-212 -29 -412 -129 -551 -275 -112 -119 -177 -229
-226 -390 l-23 -73 -3 -1570 c-3 -1730 -6 -1638 59 -1805 48 -124 97 -198 204
-305 116 -116 214 -179 350 -224 148 -49 208 -53 810 -48 533 3 552 4 630 26
338 94 582 348 662 689 17 73 18 167 18 1637 0 1720 4 1595 -61 1766 -112 298
-401 523 -729 568 -72 10 -1069 14 -1140 4z"/>
<path d="M13967 16956 c-92 -33 -163 -109 -188 -201 -14 -48 -5 -264 16 -413
103 -728 505 -1364 1113 -1763 328 -216 680 -348 1052 -397 l55 -7 6 -640 c4
-445 9 -648 17 -667 l12 -28 -583 0 c-545 0 -585 -2 -622 -19 -81 -38 -125
-111 -125 -208 1 -105 62 -188 156 -212 63 -16 2738 -15 2802 1 58 14 122 76
140 134 27 93 6 189 -54 246 -63 59 -52 58 -664 58 l-561 0 7 23 c5 12 7 313
5 668 l-3 646 66 7 c165 17 376 73 571 151 351 141 616 322 893 609 436 454
696 1056 719 1668 7 178 -3 222 -59 277 -54 53 -113 74 -208 75 -101 1 -156
-18 -213 -72 -66 -63 -76 -93 -87 -264 -22 -352 -108 -637 -277 -927 -250
-429 -637 -759 -1067 -910 -353 -125 -691 -141 -1050 -50 -350 88 -658 267
-917 533 -354 364 -545 807 -578 1343 -7 124 -12 149 -35 197 -15 31 -44 69
-64 86 -76 62 -191 86 -275 56z"/>
</g>
</svg>
